<svg width="319" height="309" viewBox="0 0 319 309" fill="none" xmlns="http://www.w3.org/2000/svg">
<path d="M49.4433 126.779V146H37.911C29.6925 146 23.2856 144.012 18.6904 140.035C14.0951 135.97 11.7975 129.386 11.7975 120.284V90.8568H2.78367V72.0338H11.7975V54.0062H34.4645V72.0338H49.3108V90.8568H34.4645V120.549C34.4645 122.759 34.9947 124.349 36.0552 125.321C37.1156 126.293 38.883 126.779 41.3574 126.779H49.4433ZM73.4691 64.3456C69.4924 64.3456 66.2227 63.1968 63.6599 60.8991C61.1856 58.5131 59.9484 55.5969 59.9484 52.1505C59.9484 48.6156 61.1856 45.6994 63.6599 43.4018C66.2227 41.0158 69.4924 39.8228 73.4691 39.8228C77.3574 39.8228 80.5387 41.0158 83.0131 43.4018C85.5758 45.6994 86.8572 48.6156 86.8572 52.1505C86.8572 55.5969 85.5758 58.5131 83.0131 60.8991C80.5387 63.1968 77.3574 64.3456 73.4691 64.3456ZM84.7363 72.0338V146H62.0693V72.0338H84.7363ZM96.656 109.017C96.656 101.329 98.2025 94.6125 101.295 88.8684C104.477 83.1243 108.851 78.7058 114.418 75.6128C120.074 72.5199 126.525 70.9734 133.772 70.9734C143.051 70.9734 150.783 73.4036 156.969 78.264C163.243 83.1243 167.352 89.9731 169.297 98.8101H145.171C143.139 93.1544 139.206 90.3265 133.374 90.3265C129.221 90.3265 125.907 91.9614 123.432 95.2311C120.958 98.4124 119.721 103.008 119.721 109.017C119.721 115.026 120.958 119.666 123.432 122.935C125.907 126.117 129.221 127.707 133.374 127.707C139.206 127.707 143.139 124.879 145.171 119.224H169.297C167.352 127.884 163.243 134.689 156.969 139.637C150.695 144.586 142.962 147.06 133.772 147.06C126.525 147.06 120.074 145.514 114.418 142.421C108.851 139.328 104.477 134.909 101.295 129.165C98.2025 123.421 96.656 116.705 96.656 109.017Z" fill="#EEE9DB"/>
<path d="M99.7065 172.854V192.075H88.1742C79.9557 192.075 73.5488 190.086 68.9536 186.11C64.3583 182.044 62.0607 175.461 62.0607 166.359V136.931H53.0469V118.108H62.0607V100.081H84.7277V118.108H99.574V136.931H84.7277V166.624C84.7277 168.833 85.2579 170.424 86.3184 171.396C87.3788 172.368 89.1462 172.854 91.6206 172.854H99.7065ZM107.826 154.959C107.826 147.359 109.239 140.687 112.067 134.943C114.984 129.199 118.916 124.78 123.865 121.687C128.814 118.594 134.337 117.048 140.434 117.048C145.648 117.048 150.199 118.108 154.088 120.229C158.064 122.35 161.113 125.134 163.234 128.58V118.108H185.901V192.075H163.234V181.603C161.025 185.049 157.932 187.833 153.955 189.954C150.067 192.075 145.516 193.135 140.302 193.135C134.293 193.135 128.814 191.588 123.865 188.496C118.916 185.314 114.984 180.851 112.067 175.107C109.239 169.275 107.826 162.559 107.826 154.959ZM163.234 155.091C163.234 149.436 161.643 144.973 158.462 141.703C155.369 138.434 151.569 136.799 147.062 136.799C142.555 136.799 138.711 138.434 135.53 141.703C132.437 144.885 130.89 149.303 130.89 154.959C130.89 160.615 132.437 165.122 135.53 168.48C138.711 171.749 142.555 173.384 147.062 173.384C151.569 173.384 155.369 171.749 158.462 168.48C161.643 165.21 163.234 160.747 163.234 155.091ZM197.793 155.091C197.793 147.403 199.339 140.687 202.432 134.943C205.613 129.199 209.988 124.78 215.555 121.687C221.211 118.594 227.662 117.048 234.908 117.048C244.187 117.048 251.92 119.478 258.106 124.338C264.38 129.199 268.489 136.048 270.433 144.885H246.308C244.276 139.229 240.343 136.401 234.511 136.401C230.357 136.401 227.043 138.036 224.569 141.306C222.095 144.487 220.857 149.082 220.857 155.091C220.857 161.101 222.095 165.74 224.569 169.01C227.043 172.191 230.357 173.782 234.511 173.782C240.343 173.782 244.276 170.954 246.308 165.298H270.433C268.489 173.959 264.38 180.763 258.106 185.712C251.831 190.661 244.099 193.135 234.908 193.135C227.662 193.135 221.211 191.588 215.555 188.496C209.988 185.403 205.613 180.984 202.432 175.24C199.339 169.496 197.793 162.78 197.793 155.091Z" fill="#F9B217"/>
<path d="M147.876 236.73V255.951H136.344C128.125 255.951 121.718 253.962 117.123 249.986C112.528 245.921 110.23 239.337 110.23 230.235V200.807H101.216V181.985H110.23V163.957H132.897V181.985H147.743V200.807H132.897V230.5C132.897 232.709 133.427 234.3 134.488 235.272C135.548 236.244 137.316 236.73 139.79 236.73H147.876ZM194.171 257.011C186.925 257.011 180.385 255.465 174.553 252.372C168.809 249.279 164.258 244.86 160.9 239.116C157.63 233.372 155.995 226.656 155.995 218.968C155.995 211.368 157.674 204.696 161.032 198.952C164.39 193.119 168.985 188.656 174.818 185.564C180.65 182.471 187.19 180.924 194.436 180.924C201.683 180.924 208.222 182.471 214.054 185.564C219.887 188.656 224.482 193.119 227.84 198.952C231.198 204.696 232.877 211.368 232.877 218.968C232.877 226.567 231.154 233.284 227.708 239.116C224.35 244.86 219.71 249.279 213.789 252.372C207.957 255.465 201.417 257.011 194.171 257.011ZM194.171 237.393C198.501 237.393 202.169 235.802 205.173 232.621C208.266 229.44 209.813 224.888 209.813 218.968C209.813 213.047 208.31 208.496 205.306 205.314C202.39 202.133 198.766 200.542 194.436 200.542C190.018 200.542 186.35 202.133 183.434 205.314C180.518 208.407 179.06 212.958 179.06 218.968C179.06 224.888 180.474 229.44 183.302 232.621C186.218 235.802 189.841 237.393 194.171 237.393ZM314.627 217.775C314.627 219.895 314.495 222.105 314.229 224.402H262.93C263.284 228.998 264.742 232.532 267.305 235.007C269.956 237.393 273.181 238.586 276.981 238.586C282.637 238.586 286.569 236.2 288.779 231.428H312.904C311.667 236.288 309.413 240.663 306.144 244.551C302.962 248.439 298.941 251.488 294.081 253.697C289.221 255.906 283.786 257.011 277.777 257.011C270.53 257.011 264.079 255.465 258.423 252.372C252.768 249.279 248.349 244.86 245.168 239.116C241.986 233.372 240.396 226.656 240.396 218.968C240.396 211.279 241.942 204.563 245.035 198.819C248.217 193.075 252.635 188.656 258.291 185.564C263.947 182.471 270.442 180.924 277.777 180.924C284.935 180.924 291.297 182.426 296.865 185.431C302.432 188.436 306.762 192.722 309.855 198.289C313.036 203.856 314.627 210.351 314.627 217.775ZM291.43 211.81C291.43 207.921 290.104 204.828 287.453 202.531C284.802 200.233 281.488 199.084 277.511 199.084C273.712 199.084 270.486 200.189 267.835 202.398C265.272 204.607 263.681 207.745 263.063 211.81H291.43Z" fill="#0D98BA"/>
</svg>
